<svg xmlns="http://www.w3.org/2000/svg" viewBox="0 0 480 480"><path d="M472 88.014h-32v-40a8 8 0 00-8.672-8l-20.872 1.76a485.342 485.342 0 00-147.12 35.872L240 87.35l-23.312-9.672a485.454 485.454 0 00-147.136-35.88l-20.88-1.784a8.09 8.09 0 00-6.088 2.088A8 8 0 0040 48.014v40H8a8 8 0 00-8 8v336a8 8 0 008 8h464a8 8 0 008-8v-336a8 8 0 00-8-8zM16 424.03V104.014h24v280a8 8 0 007.32 8l21.528 1.84a458.15 458.15 0 0117.6 1.816c1.96.232 3.904.544 5.864.8 3.88.52 7.76 1.04 11.624 1.656 2.304.368 4.6.8 6.896 1.208 3.504.616 7.008 1.232 10.496 1.92 2.4.48 4.8 1.008 7.2 1.528a436.72 436.72 0 0110.088 2.256c2.4.576 4.84 1.192 7.256 1.808 3.304.848 6.6 1.712 9.888 2.624 2.4.672 4.8 1.376 7.2 2.08 3.264.965 6.52 1.968 9.768 3.008 2.379.757 4.752 1.536 7.12 2.336a428.042 428.042 0 019.768 3.424c2.304.8 4.616 1.672 6.904 2.544.992.376 1.976.8 2.96 1.168H16zm216-280.016l-33.832-14.04a436.226 436.226 0 00-100.928-28.52 8 8 0 10-2.481 15.8 421.463 421.463 0 0197.24 27.464l40 16.608v38.688l-33.832-14.04a436.226 436.226 0 00-100.928-28.52 8 8 0 10-2.481 15.8 421.463 421.463 0 0197.24 27.464l40 16.608v38.688l-33.832-14.04a436.226 436.226 0 00-100.928-28.52 8 8 0 10-2.481 15.8 421.463 421.463 0 0197.24 27.464l40 16.608v38.688l-33.832-14.04a436.226 436.226 0 00-100.928-28.52 8 8 0 10-2.48 15.8 421.463 421.463 0 0197.24 27.464l40 16.608v38.728a533.326 533.326 0 00-134.992-35.608 8.004 8.004 0 00-2.016 15.88 517.313 517.313 0 01134.592 36l2.4 1.008v34.68l-14.752-6.16a485.196 485.196 0 00-147.048-36L56 376.67V56.718l12.208 1.024a469.456 469.456 0 01142.328 34.696L232 101.35v42.664zm16 276v-34.656l3.352-1.4a520.873 520.873 0 01133.664-35.672 8 8 0 10-2.032-15.865A536.777 536.777 0 00248 368.077v-38.752l39.896-16.56a421.123 421.123 0 0197.344-27.528 8.001 8.001 0 00-2.48-15.808 437.186 437.186 0 00-101.024 28.568L248 312.014v-38.688l39.896-16.56a421.123 421.123 0 0197.344-27.528 8.001 8.001 0 00-2.48-15.808 437.186 437.186 0 00-101.024 28.568L248 256.014v-38.688l39.896-16.56a421.123 421.123 0 0197.344-27.528 8.001 8.001 0 00-2.48-15.808 437.186 437.186 0 00-101.024 28.568L248 200.014v-38.688l39.896-16.56a421.123 421.123 0 0197.344-27.528 8.001 8.001 0 00-2.48-15.808 437.186 437.186 0 00-101.024 28.568L248 144.014V101.35l21.488-8.92a469.383 469.383 0 01142.304-34.688L424 56.718v319.928l-13.144 1.072a488.463 488.463 0 00-147.2 35.792L248 420.014zm216 4H280.64c1.096-.424 2.184-.872 3.28-1.288 2.4-.92 4.8-1.792 7.256-2.664a451.006 451.006 0 019.448-3.304c2.464-.8 4.944-1.6 7.416-2.4a500.709 500.709 0 019.512-2.912c2.496-.736 5-1.464 7.504-2.152 3.2-.896 6.4-1.736 9.68-2.56 2.48-.632 4.968-1.264 7.464-1.856 3.328-.8 6.68-1.52 10.032-2.232 2.4-.52 4.8-1.056 7.248-1.536 3.52-.696 7.056-1.312 10.584-1.928 2.288-.4 4.568-.8 6.864-1.2 3.944-.624 7.896-1.16 11.856-1.688 1.896-.248 3.792-.552 5.696-.8a495.198 495.198 0 0117.688-1.816l20.488-1.664a8 8 0 007.344-8v-280h24v320z"/></svg>