<svg xmlns="http://www.w3.org/2000/svg" viewBox="0 0 354.968 354.968"><path d="M350.775 341.319c-9.6-28.4-20.8-55.2-34.4-80.8.4-.4.8-1.2 1.6-1.6 30.8-34.8 44-83.6 20.4-131.6-20.4-41.6-65.6-76.4-124.8-98.8-57.2-22-127.6-32.4-200.4-27.2-5.6.4-10 5.2-9.6 10.8.4 2.8 1.6 5.6 4 7.2 36.8 31.6 50 79.2 63.6 126.8 8 28 15.6 55.6 28.4 81.2 0 .4.4.4.4.8 30.8 59.6 78 81.2 122.8 78.4 18.4-1.2 36-6.4 52.4-14.4 9.2-4.8 18-10.4 26-16.8 11.6 23.2 22 47.2 30.4 72.8 1.6 5.2 7.6 8 12.8 6.4 5.6-2.4 8.4-8 6.4-13.2zm-144.4-293.6c18.4 6.8 35.2 15.2 50.4 24.4l6 108c-16-19.2-33.6-37.2-53.2-53.6l-4.8-79.2c.4 0 .8.4 1.6.4zm-169.2-27.2c52.4-1.6 103.2 5.6 146.8 19.2l4.4 69.6c-15.2-11.2-31.2-22-48.8-31.6-4.8-2.8-11.2-1.2-13.6 4-2.8 4.8-1.2 11.2 4 13.6 13.2 7.6 26 15.6 38 24l-84.4-4c-10.4-34.4-22.8-67.6-46.4-94.8zm53.6 120.4l-1.2-4.8 106.4 5.2c21.6 18 40.8 38 57.6 59.6l-146.4-6.8c-6.4-17.6-11.2-35.2-16.4-53.2zm175.2 132.8c-14 7.2-28.8 11.6-44.4 12.4-37.6 2.4-77.2-16-104-67.6v-.4c-.8-1.2-1.2-2.8-2-4l153.6 7.2c8 11.2 15.2 22.8 22 34.8-7.6 7.2-16 13.2-25.2 17.6zm18.8-65.6l-6.8-122c18.8 15.2 33.2 32 42.4 50 18.8 38 9.2 76.8-14.4 105.2-6.8-11.2-13.6-22.4-21.2-33.2z"/></svg>