<svg xmlns="http://www.w3.org/2000/svg" viewBox="0 0 512 512"><path d="M352 128H160c-5.888 0-10.667 4.779-10.667 10.667s4.779 10.667 10.667 10.667h192c5.888 0 10.667-4.779 10.667-10.667S357.888 128 352 128z"/><path d="M456.064 85.333c-10.581 0-20.651 3.051-29.397 8.512V32c0-17.643-14.357-32-32-32H32C14.357 0 0 14.357 0 32v448c0 17.643 14.357 32 32 32h362.667c17.643 0 32-14.357 32-32V249.728l39.467-39.467c.021-.021.043-.021.064-.043.021-.021.021-.043.043-.064l29.376-29.376C506.197 170.219 512 156.16 512 141.227c0-30.827-25.088-55.894-55.936-55.894zM405.333 480c0 5.888-4.8 10.667-10.667 10.667H32c-5.867 0-10.667-4.779-10.667-10.667v-53.333h23.296C49.045 439.061 60.779 448 74.667 448c17.643 0 32-14.357 32-32s-14.357-32-32-32c-13.888 0-25.621 8.939-30.037 21.333H21.333V320h23.296c4.416 12.395 16.149 21.333 30.037 21.333 17.643 0 32-14.357 32-32s-14.357-32-32-32c-13.888 0-25.621 8.939-30.037 21.333H21.333v-85.333h23.296c4.416 12.395 16.149 21.333 30.037 21.333 17.643 0 32-14.357 32-32s-14.357-32-32-32c-13.888 0-25.621 8.939-30.037 21.333H21.333v-85.333h23.296C49.045 119.061 60.779 128 74.667 128c17.643 0 32-14.357 32-32s-14.357-32-32-32c-13.888 0-25.621 8.939-30.037 21.333H21.333V32c0-5.888 4.8-10.667 10.667-10.667h362.667c5.867 0 10.667 4.779 10.667 10.667v80.917l-18.219 18.219-82.197 82.197H160c-5.888 0-10.667 4.779-10.667 10.667s4.779 10.667 10.667 10.667h123.584l-64 64H160c-5.888 0-10.667 4.779-10.667 10.667S154.112 320 160 320h50.325l-16 64H160c-5.888 0-10.667 4.779-10.667 10.667s4.779 10.667 10.667 10.667h42.667c.853 0 1.728-.107 2.581-.341l85.333-21.333c.235-.064.405-.277.64-.363 1.408-.469 2.667-1.152 3.755-2.112.171-.149.405-.149.555-.32l109.803-109.803V480zM64 416c0-5.888 4.8-10.667 10.667-10.667S85.334 410.112 85.334 416s-4.8 10.667-10.667 10.667S64 421.888 64 416zm0-106.667c0-5.888 4.8-10.667 10.667-10.667s10.667 4.779 10.667 10.667S80.533 320 74.667 320C68.8 320 64 315.221 64 309.333zm0-106.666C64 196.779 68.8 192 74.667 192s10.667 4.779 10.667 10.667-4.8 10.667-10.667 10.667C68.8 213.333 64 208.555 64 202.667zM64 96c0-5.888 4.8-10.667 10.667-10.667S85.334 90.112 85.334 96s-4.8 10.667-10.667 10.667S64 101.888 64 96zm167.915 225.643c6.891 2.005 17.088 6.443 27.2 16.555s14.571 20.331 16.576 27.2l-58.368 14.613 14.592-58.368zm61.76 30.912c-3.477-8.789-9.259-19.264-19.477-29.44-10.197-10.197-20.672-15.979-29.44-19.456l72.128-72.128 77.781-77.76 48.896 48.896-149.888 149.888zm186.858-186.859l-21.888 21.888-48.896-48.917 13.803-13.803 8.107-8.107c6.507-6.549 15.189-10.133 24.469-10.133 19.051 0 34.56 15.509 34.56 34.603-.021 9.258-3.627 17.92-10.155 24.469z"/></svg>